<svg width="240" height="200" viewBox="0 0 240 200" fill="none" xmlns="http://www.w3.org/2000/svg">
<path d="M162.078 3.29639H0V146.113H162.078V3.29639Z" fill="black"/>
<path d="M172.722 10.8823H10.6436V140.196H172.722V10.8823Z" fill="white"/>
<path d="M171.491 12.0738V139.004H11.7955V12.0738H171.491ZM172.682 10.8823H10.604V140.196H172.682V10.8823Z" fill="black"/>
<path d="M172.881 0.595703H11.1602V11.0805H172.881V0.595703Z" fill="white"/>
<path d="M172.881 0H11.1602V1.19146H172.881V0Z" fill="black"/>
<path d="M165.692 8.53897C166.855 8.53897 167.797 7.59655 167.797 6.43404C167.797 5.27152 166.855 4.3291 165.692 4.3291C164.53 4.3291 163.587 5.27152 163.587 6.43404C163.587 7.59655 164.53 8.53897 165.692 8.53897Z" fill="black"/>
<path d="M155.565 8.53897C156.728 8.53897 157.67 7.59655 157.67 6.43404C157.67 5.27152 156.728 4.3291 155.565 4.3291C154.403 4.3291 153.46 5.27152 153.46 6.43404C153.46 7.59655 154.403 8.53897 155.565 8.53897Z" fill="black"/>
<path d="M145.438 8.53897C146.6 8.53897 147.543 7.59655 147.543 6.43404C147.543 5.27152 146.6 4.3291 145.438 4.3291C144.275 4.3291 143.333 5.27152 143.333 6.43404C143.333 7.59655 144.275 8.53897 145.438 8.53897Z" fill="black"/>
<path d="M30.9781 19.6987H29.7866V71.3287H30.9781V19.6987Z" fill="black"/>
<path d="M28.5556 25.5367L27.4038 25.1395L30.3031 16.9185L33.7583 24.3056L32.686 24.7821L30.4619 20.056L28.5556 25.5367Z" fill="black"/>
<path d="M89.4786 65.4907H25.1396V66.6822H89.4786V65.4907Z" fill="black"/>
<path d="M85.2291 69.4226L84.7128 68.3901L89.1609 66.166L83.7993 64.22L84.1965 63.1079L92.219 66.0072L85.2291 69.4226Z" fill="black"/>
<path d="M41.7009 28.5557H36.4585V66.0867H41.7009V28.5557Z" fill="black"/>
<path d="M54.3703 46.9438H48.3335V65.8881H54.3703V46.9438Z" fill="black"/>
<path d="M78.9938 52.5835H72.957V65.8881H78.9938V52.5835Z" fill="black"/>
<path d="M66.4834 27.1655H58.8184V66.2852H66.4834V27.1655Z" fill="black"/>
<path d="M21.1682 126.017L19.6987 125.381L37.7692 83.3228L58.6595 107.986L85.0305 83.6803L115.611 123.157L114.34 124.15L84.8319 86.0234L58.5007 110.29L38.2061 86.3412L21.1682 126.017Z" fill="black"/>
<path d="M85.0702 87.6918C86.5618 87.6918 87.7709 86.4827 87.7709 84.9912C87.7709 83.4997 86.5618 82.2905 85.0702 82.2905C83.5787 82.2905 82.3696 83.4997 82.3696 84.9912C82.3696 86.4827 83.5787 87.6918 85.0702 87.6918Z" fill="black"/>
<path d="M113.785 124.826C115.276 124.826 116.485 123.617 116.485 122.125C116.485 120.633 115.276 119.424 113.785 119.424C112.293 119.424 111.084 120.633 111.084 122.125C111.084 123.617 112.293 124.826 113.785 124.826Z" fill="black"/>
<path d="M104.928 56.1973C102.545 66.9998 105.285 78.7158 113.268 87.5327C124.23 99.5664 141.585 102.307 155.406 95.1977L139.321 63.8226L104.928 56.1973Z" fill="black"/>
<path d="M124.388 92.4176L125.778 88.0886L134.039 87.6518L133.999 86.9766L126.017 87.3738L130.147 74.4663L138.09 69.5019L137.534 68.5884L130.663 72.8379L131.855 69.1047L130.783 68.787L129.234 73.7514L125.183 76.2137L125.778 77.1668L128.717 75.34L124.825 87.4532L115.055 87.9297L115.095 88.6049L124.627 88.1283L123.356 92.0601L124.388 92.4176Z" fill="white"/>
<path d="M142.416 84.8109L127.641 96.731L128.065 97.2564L142.84 85.3364L142.416 84.8109Z" fill="white"/>
<path d="M146.073 91.5438L144.206 91.8615L144.484 93.7282L140.354 95.5948L140.632 96.1508L144.604 94.3636L145.16 97.9777L147.026 97.6997L146.391 93.5693L150.521 91.7027L150.243 91.1069L146.311 92.8941L146.073 91.5438Z" fill="white"/>
<path d="M140.767 67.8346L139.596 68.5059L142.676 73.8817L143.847 73.2105L140.767 67.8346Z" fill="white"/>
<path d="M121.502 78.2428L120.331 78.9141L123.41 84.29L124.582 83.6188L121.502 78.2428Z" fill="white"/>
<path d="M109.455 70.6533L108.542 71.6065L113.109 75.8163L114.023 74.8632" fill="white"/>
<path d="M145.403 83.073L144.486 84.064L149.033 88.272L149.95 87.281L145.403 83.073Z" fill="white"/>
<path d="M144.317 78.9524L139.198 82.4424L139.959 83.558L145.078 80.068L144.317 78.9524Z" fill="white"/>
<path d="M127.751 69.6687L122.632 73.1587L123.393 74.2743L128.512 70.7843L127.751 69.6687Z" fill="white"/>
<path d="M122.685 75.3524L112.804 79.814L113.065 80.3931L122.947 75.9315L122.685 75.3524Z" fill="white"/>
<path d="M138.026 79.6961L128.145 84.1577L128.406 84.7369L138.288 80.2753L138.026 79.6961Z" fill="white"/>
<path d="M124.984 66.603C125.342 66.2852 125.381 65.7292 125.024 65.3717C124.706 65.0143 124.15 64.9746 123.793 65.3321C123.435 65.6498 123.396 66.2058 123.753 66.5632C124.071 66.8809 124.627 66.9207 124.984 66.603Z" fill="white"/>
<path d="M141.307 91.2263C140.95 91.544 140.91 92.0999 141.268 92.4574C141.625 92.8148 142.141 92.8546 142.499 92.4971C142.856 92.1794 142.896 91.6233 142.539 91.2659C142.221 90.9085 141.665 90.9085 141.307 91.2263Z" fill="white"/>
<path d="M112.593 62.0751C112.95 61.7574 112.99 61.2014 112.633 60.844C112.315 60.4865 111.759 60.4468 111.402 60.8042C111.044 61.1616 111.004 61.678 111.362 62.0354C111.68 62.3531 112.236 62.3928 112.593 62.0751Z" fill="white"/>
<path d="M136.859 76.0949C136.501 75.6978 135.906 75.6581 135.509 76.0155C135.111 76.373 135.072 76.9687 135.429 77.3658C135.787 77.763 136.382 77.8028 136.779 77.4453C137.177 77.0879 137.216 76.4921 136.859 76.0949Z" fill="white"/>
<path d="M125.143 78.7952C124.825 78.4775 124.309 78.4378 123.991 78.7555C123.673 79.0732 123.634 79.5896 123.951 79.9073C124.269 80.225 124.785 80.2647 125.103 79.9469C125.421 79.6292 125.421 79.113 125.143 78.7952Z" fill="white"/>
<path d="M117.637 64.855L116.485 65.5302L116.883 66.245L104.213 66.8805C104.213 67.1188 104.253 67.3174 104.293 67.5556L117.28 66.9203L119.583 70.9315L120.735 70.2563L118.789 66.8407L121.768 66.6819L121.728 66.0068L118.392 66.1656L117.637 64.855Z" fill="white"/>
<path d="M151.951 30.8589L139.322 63.7829L151.951 30.8589Z" fill="black"/>
<path d="M152.745 28.1183C140.712 23.5113 126.573 25.6957 116.406 34.9494C110.806 40.033 107.192 46.5463 105.683 53.4171L140.116 61.0424L152.745 28.1183Z" fill="black"/>
<path d="M97.3025 94.4828C101.909 94.4828 105.643 98.216 105.643 102.823C105.643 107.43 101.909 111.163 97.3025 111.163C92.6955 111.163 88.9623 107.43 88.9623 102.823C88.9623 98.216 92.6955 94.4828 97.3025 94.4828ZM97.3025 93.6885C92.2587 93.6885 88.168 97.7792 88.168 102.823C88.168 107.867 92.2587 111.958 97.3025 111.958C102.346 111.958 106.437 107.867 106.437 102.823C106.437 97.7792 102.346 93.6885 97.3025 93.6885Z" fill="black"/>
<path d="M18.5076 176.019C23.0749 157.273 31.4548 137.018 38.961 129.155C40.9865 127.169 44.124 126.176 48.6913 125.024C58.0641 123.237 55.0457 123.833 63.386 119.543C65.3717 118.153 70.5744 116.763 72.7191 117.002C75.38 114.142 87.6918 103.459 93.0136 99.7254C99.6064 95.0787 103.856 101.274 101.155 106.676C98.7723 112.236 92.5768 120.06 89.9953 123.237C81.377 135.668 74.824 139.759 72.3616 155.684C73.0368 155.208 83.4422 148.139 84.6734 146.232C86.262 143.968 95.1582 128.638 99.9638 135.39C102.585 139.083 99.7653 144.802 96.2703 154.413C92.9739 160.252 80.3842 176.932 78.5573 178.64C73.2751 182.413 60.5265 185.272 58.1833 186.067C58.1833 186.067 58.1832 186.106 58.223 186.106L54.8869 199.252C54.8869 199.252 26.0535 200.046 15.6084 186.901L18.3487 176.058C18.3487 176.019 18.3884 176.019 18.5076 176.019Z" fill="#F7C748"/>
<path d="M61.1621 131.259C61.2416 131.18 67.7152 121.291 73.1562 116.604L72.6796 116.088C67.1592 120.814 60.6458 130.783 60.5664 130.862L61.1621 131.259Z" fill="black"/>
<path d="M53.0066 123.831L47.3032 130.915L47.86 131.363L53.5633 124.279L53.0066 123.831Z" fill="black"/>
<path d="M46.049 133.129L43.6714 135.412L44.1665 135.927L46.5442 133.644L46.049 133.129Z" fill="black"/>
<path d="M58.6005 133.834L56.645 135.865L57.1601 136.361L59.1156 134.329L58.6005 133.834Z" fill="black"/>
<path d="M91.5045 105.365C92.0605 105.484 92.6165 105.524 93.2122 105.445C96.6674 104.889 99.4873 100.401 99.6064 100.202L99.0107 99.8447C98.971 99.8844 96.2306 104.253 93.0931 104.769C92.0605 104.928 91.0676 104.65 90.1541 103.935L89.7173 104.491C90.2733 104.889 90.869 105.206 91.5045 105.365Z" fill="black"/>
<path d="M96.4292 149.29C96.5087 149.29 96.5881 149.33 96.6675 149.33L96.7866 148.655C96.0717 148.535 95.5952 148.178 95.3172 147.582C93.8477 144.564 97.9781 136.819 98.0178 136.74L97.3824 136.422C97.2235 136.74 93.0534 144.564 94.6817 147.9C95.0392 148.615 95.5952 149.092 96.4292 149.29Z" fill="black"/>
<path d="M81.5191 165.457L81.0034 165.952L83.2862 168.33L83.8019 167.835L81.5191 165.457Z" fill="white"/>
<path d="M80.171 168.011L79.7046 168.553L81.4806 170.082L81.9469 169.54L80.171 168.011Z" fill="white"/>
<path d="M77.8296 116.04L77.2158 116.407L79.0077 119.408L79.6215 119.041L77.8296 116.04Z" fill="white"/>
<path d="M85.1899 146.629C85.1899 146.629 79.7489 161.324 72.6001 154.374L85.1899 146.629Z" fill="black"/>
<path d="M181.658 44.8782C164.382 38.8415 156.478 33.9167 152.864 39.6357C149.25 45.3547 157.074 52.2653 160.49 54.0128C163.905 55.7602 182.929 45.5136 182.929 45.5136L181.658 44.8782Z" fill="black"/>
<path d="M163.588 76.1343C159.894 81.4561 154.612 90.3921 157.392 95.4756C160.172 100.559 166.884 97.7792 166.884 97.7792C166.884 97.7792 166.05 101.234 170.101 104.769C174.152 108.343 182.333 101.155 182.333 101.155L163.588 76.1343Z" fill="black"/>
<path d="M173.953 59.1758C177.289 54.9262 184.12 46.7845 188.608 47.6186C193.096 48.4526 212.04 57.19 217.521 62.7502C222.724 68.0323 223.518 96.7465 223.518 96.7465L240 104.809C238.967 120.496 234.201 133.92 219.705 149.409L201.913 141.387C201.913 141.387 181.777 139.242 182.73 112.712C182.73 112.712 175.184 107.47 173.477 96.2301C168.949 90.8289 169.823 84.9113 169.823 84.9113C163.786 77.7625 170.617 63.465 173.953 59.1758Z" fill="#F5BAAE"/>
<path d="M169.068 68.7469L170.101 67.5952L180.069 88.9621L173.357 96.1109C165.097 94.6811 167.599 86.1025 167.599 86.1025C164.143 82.0118 161.522 75.022 169.068 68.7469Z" fill="black"/>
<path d="M194.287 77.9214L184.2 49.9617C184.2 49.9617 199.649 48.7306 199.371 57.3886C199.093 66.0068 194.287 77.9214 194.287 77.9214Z" fill="black"/>
<path d="M190.872 121.886L191.468 121.37C191.428 121.33 187.059 116.366 180.069 109.693L179.513 110.249C186.463 116.882 190.832 121.807 190.872 121.886Z" fill="black"/>
<path d="M181.539 36.419C177.687 32.2092 173.08 29.1114 168.076 27.2051L155.486 60.1291L171.571 91.5042C174.271 90.1142 176.853 88.3668 179.196 86.1824C193.613 73.1161 194.645 50.8357 181.539 36.419Z" fill="white"/>
<path d="M168.751 28.7936C173.278 30.6999 177.29 33.5594 180.665 37.2529C186.782 43.9648 189.919 52.7022 189.482 61.797C189.045 70.8918 185.113 79.2718 178.402 85.388C176.456 87.1355 174.351 88.6844 172.087 89.9553L156.796 60.129L168.751 28.7936ZM168.076 27.2446L155.486 60.1687L171.571 91.5439C174.271 90.1538 176.853 88.4063 179.196 86.222C193.613 73.1159 194.645 50.8356 181.539 36.4189C177.726 32.2091 173.08 29.151 168.076 27.2446Z" fill="black"/>
<path d="M195.122 77.9212C195.122 77.9212 182.254 48.929 175.502 46.2283C167.44 42.9717 161.205 51.0339 167.996 65.808C173.636 78.1198 170.339 91.3847 176.217 104.888" fill="#F5BAAE"/>
<path d="M171.809 61.3202C173.874 61.0025 175.343 60.0891 176.138 58.6593C178.123 55.0849 175.343 49.4453 175.224 49.207L174.509 49.5644C174.549 49.6041 177.21 55.0452 175.423 58.3018C174.708 59.6124 173.278 60.4068 171.213 60.6451L171.292 61.4394C171.491 61.3997 171.65 61.3599 171.809 61.3202Z" fill="black"/>
<path d="M179.407 82.7398L176.376 84.1343L176.874 85.2167L179.905 83.8222L179.407 82.7398Z" fill="white"/>
<path d="M178.262 80.4467L176.437 80.9946L176.779 82.1358L178.605 81.5879L178.262 80.4467Z" fill="white"/>
<path d="M197.028 15.0522L188.132 22.5982L190.157 24.6633L201.834 15.0522H197.028Z" fill="black"/>
<path d="M153.182 109.614L150.879 117.24L152.825 117.637L155.923 107.827L153.182 109.614Z" fill="black"/>
<path d="M197.704 31.534C198.471 31.534 199.094 30.9116 199.094 30.1439C199.094 29.3762 198.471 28.7539 197.704 28.7539C196.936 28.7539 196.313 29.3762 196.313 30.1439C196.313 30.9116 196.936 31.534 197.704 31.534Z" fill="black"/>
</svg>
