<svg width="74" height="65" viewBox="0 0 74 65" fill="none" xmlns="http://www.w3.org/2000/svg">
<path d="M37 64.6675C57.4345 64.6675 73.9999 58.169 73.9999 50.1528C73.9999 42.1365 57.4345 35.638 37 35.638C16.5655 35.638 0 42.1365 0 50.1528C0 58.169 16.5655 64.6675 37 64.6675Z" fill="#F9FAFB"/>
<path d="M39.9865 5.20337L38.7438 12.9944H30.6661L39.9394 5.20337H39.9865Z" fill="#D0D5DD"/>
<path d="M38.7439 13.2199H30.6663C30.571 13.2199 30.4869 13.1608 30.4548 13.0716C30.4227 12.9824 30.4488 12.8832 30.5219 12.822L39.7952 5.03099C39.8363 4.99692 39.8874 4.97787 39.9406 4.97787H39.9877C40.0538 4.97787 40.1159 5.00694 40.159 5.05705C40.2021 5.10716 40.2202 5.1733 40.2101 5.23845L38.9674 13.0295C38.9494 13.1397 38.8552 13.2199 38.7439 13.2199ZM31.2856 12.7689H38.5515L39.676 5.7195L31.2856 12.7689Z" fill="#F9FAFB"/>
<path d="M65.1227 7.86423L64.6156 11.0412L59.0804 45.7461L61.5138 46.2242L66.6771 13.8523L67.1842 10.6744L65.1227 7.86423Z" fill="#E4E7EC"/>
<path d="M61.5137 46.4496C61.4997 46.4496 61.4847 46.4486 61.4706 46.4456L59.0373 45.9676C58.9181 45.9445 58.8389 45.8303 58.8579 45.711L64.9002 7.82813C64.9142 7.73793 64.9813 7.66577 65.0695 7.64473C65.1577 7.62368 65.2509 7.65675 65.304 7.73091L67.3655 10.5411C67.4016 10.5892 67.4157 10.6503 67.4066 10.7094L61.7372 46.2592C61.7272 46.3194 61.6941 46.3735 61.644 46.4086C61.6049 46.4356 61.5598 46.4496 61.5137 46.4496ZM59.338 45.5667L61.3283 45.9576L66.9466 10.7315L65.2599 8.43245L59.338 45.5667Z" fill="#F9FAFB"/>
<path d="M65.1226 7.86423L64.6155 11.0422L58.1453 51.612L49.3491 50.7831L23.6047 49.0233C23.6047 49.0233 29.3263 19.204 29.3724 18.7681L29.8684 15.6553H37.9461L39.1888 7.86423H65.1226Z" fill="#F7F9FC"/>
<path d="M58.1453 51.8364C58.1382 51.8364 58.1312 51.8364 58.1242 51.8354L49.328 51.0066L23.5896 49.2468C23.5255 49.2428 23.4654 49.2107 23.4263 49.1596C23.3872 49.1085 23.3712 49.0433 23.3832 48.9792C25.3545 38.7077 29.0947 19.17 29.1478 18.742C29.1478 18.739 29.1488 18.734 29.1488 18.731L29.6449 15.6182C29.6619 15.5089 29.7571 15.4278 29.8674 15.4278H37.7526L38.9643 7.82714C38.9813 7.7179 39.0765 7.63672 39.1868 7.63672H65.1205C65.1867 7.63672 65.2488 7.66578 65.2919 7.71589C65.335 7.766 65.353 7.83215 65.343 7.89729L58.3657 51.644C58.3507 51.7573 58.2555 51.8364 58.1453 51.8364ZM23.8743 48.8148L49.365 50.5577L57.9558 51.3674L64.8579 8.08971H39.3812L38.1695 15.6903C38.1525 15.7996 38.0573 15.8808 37.9471 15.8808H30.0618L29.5958 18.8022C29.4896 19.5398 24.4605 45.7571 23.8743 48.8148Z" fill="#F9FAFB"/>
<path d="M36.5431 2.71594L35.3003 10.506H27.2227L36.4959 2.71594H36.5431Z" fill="#D0D5DD"/>
<path d="M35.3003 10.7315H27.2227C27.1274 10.7315 27.0433 10.6723 27.0112 10.5832C26.9791 10.494 27.0052 10.3947 27.0783 10.3336L36.3516 2.54256C36.3927 2.50848 36.4438 2.48944 36.497 2.48944H36.5441C36.6102 2.48944 36.6723 2.51851 36.7154 2.56862C36.7585 2.61872 36.7766 2.68487 36.7665 2.75001L35.5238 10.5411C35.5058 10.6513 35.4116 10.7315 35.3003 10.7315ZM27.842 10.2805H35.1079L36.2324 3.23106L27.842 10.2805Z" fill="#F9FAFB"/>
<path d="M62.078 4.04587L61.5709 7.22282L56.0358 41.9278L58.4691 42.4058L63.6324 10.034L64.1395 6.85602L62.078 4.04587Z" fill="#E4E7EC"/>
<path d="M58.4691 42.6313C58.455 42.6313 58.44 42.6303 58.426 42.6273L55.9926 42.1492C55.8734 42.1262 55.7942 42.0119 55.8132 41.8927L61.8555 4.00977C61.8695 3.91957 61.9367 3.84741 62.0248 3.82637C62.113 3.80532 62.2062 3.83839 62.2594 3.91255L64.3209 6.7227C64.3569 6.77081 64.371 6.83194 64.362 6.89208L58.6926 42.4419C58.6825 42.502 58.6495 42.5561 58.5994 42.5912C58.5603 42.6173 58.5152 42.6313 58.4691 42.6313ZM56.2933 41.7484L58.2837 42.1392L63.902 6.91312L62.2153 4.61409L56.2933 41.7484Z" fill="#F9FAFB"/>
<path d="M62.0779 4.04587L61.5708 7.22382L55.1006 47.7936L46.3044 46.9648L20.5601 45.2049C20.5601 45.2049 26.2816 15.3857 26.3277 14.9497L26.8238 11.8369H34.9014L36.1442 4.04587H62.0779Z" fill="#F7F9FC"/>
<path d="M55.1006 48.0181C55.0936 48.0181 55.0866 48.0181 55.0795 48.0171L46.2833 47.1883L20.545 45.4284C20.4808 45.4244 20.4207 45.3923 20.3816 45.3412C20.3425 45.2901 20.3265 45.225 20.3385 45.1608C22.3098 34.8894 26.05 15.3516 26.1031 14.9237C26.1031 14.9207 26.1041 14.9156 26.1041 14.9126L26.6002 11.7998C26.6173 11.6906 26.7125 11.6094 26.8227 11.6094H34.708L35.9206 4.00878C35.9376 3.89954 36.0329 3.81836 36.1431 3.81836H62.0768C62.143 3.81836 62.2051 3.84742 62.2482 3.89753C62.2913 3.94764 62.3094 4.01378 62.2993 4.07893L55.3221 47.8257C55.306 47.9389 55.2108 48.0181 55.1006 48.0181ZM20.8296 44.9965L46.3204 46.7393L54.9112 47.5491L61.8133 4.27135H36.3365L35.1239 11.872C35.1068 11.9812 35.0116 12.0624 34.9014 12.0624H27.0161L26.5501 14.9838C26.4449 15.7214 21.4159 41.9388 20.8296 44.9965Z" fill="#F9FAFB"/>
<path d="M33.0996 0.227509L31.8569 8.01756H23.7792L33.0525 0.227509H33.0996Z" fill="#D0D5DD"/>
<path d="M31.8568 8.24305H23.7792C23.684 8.24305 23.5998 8.18392 23.5677 8.09472C23.5356 8.00553 23.5617 7.90631 23.6349 7.84518L32.9082 0.0541232C32.9492 0.0200486 33.0004 0.00100708 33.0535 0.00100708H33.1006C33.1667 0.00100708 33.2289 0.0300715 33.2719 0.0801812C33.315 0.130291 33.3331 0.196435 33.3231 0.261578L32.0803 8.05263C32.0623 8.16287 31.9681 8.24305 31.8568 8.24305ZM24.3985 7.79206H31.6644L32.7889 0.742633L24.3985 7.79206Z" fill="#F9FAFB"/>
<path d="M59.0333 0.227478L58.5262 3.40443L52.9911 38.1094L55.4254 38.5874L60.5877 6.21558L61.0948 3.03763L59.0333 0.227478Z" fill="#E4E7EC"/>
<path d="M55.4254 38.8129C55.4113 38.8129 55.3963 38.8119 55.3823 38.8089L52.9489 38.3309C52.8297 38.3078 52.7505 38.1936 52.7695 38.0743L58.8118 0.191411C58.8258 0.101213 58.893 0.0290537 58.9811 0.0080076C59.0693 -0.0130385 59.1625 0.0200355 59.2157 0.0941978L61.2772 2.90435C61.3132 2.95245 61.3273 3.01358 61.3183 3.07372L55.6489 38.6235C55.6388 38.6836 55.6058 38.7378 55.5556 38.7728C55.5156 38.7989 55.4705 38.8129 55.4254 38.8129ZM53.2486 37.93L55.239 38.3208L60.8572 3.09476L59.1706 0.795733L53.2486 37.93Z" fill="#F9FAFB"/>
<path d="M59.0332 0.227509L58.5261 3.40546L52.056 43.9752L43.2597 43.1464L17.5154 41.3866C17.5154 41.3866 23.2369 11.5673 23.283 11.1314L23.7791 8.01856H31.8568L33.0995 0.227509H59.0332Z" fill="#F7F9FC"/>
<path d="M52.056 44.1997C52.049 44.1997 52.042 44.1997 52.035 44.1987L43.2387 43.3699L17.5004 41.6101C17.4363 41.606 17.3761 41.574 17.337 41.5229C17.298 41.4718 17.2819 41.4066 17.294 41.3425C19.2643 31.071 23.0055 11.5332 23.0586 11.1053C23.0586 11.1023 23.0596 11.0973 23.0596 11.0943L23.5557 7.98146C23.5727 7.87223 23.6679 7.79105 23.7781 7.79105H31.6634L32.8761 0.190416C32.8931 0.081177 32.9883 0 33.0985 0H59.0323C59.0984 0 59.1606 0.0290614 59.2037 0.0791711C59.2468 0.129281 59.2648 0.195428 59.2548 0.260571L52.2775 44.0073C52.2615 44.1206 52.1663 44.1997 52.056 44.1997ZM17.785 41.1781L43.2758 42.9209L51.8666 43.7307L58.7687 0.45299H33.292L32.0793 8.05362C32.0623 8.16286 31.9671 8.24404 31.8568 8.24404H23.9716L23.5055 11.1654C23.4003 11.9061 18.3723 38.1204 17.785 41.1781Z" fill="#F9FAFB"/>
<path d="M26.2926 11.2516L28.3541 14.0618C28.6578 14.4757 28.7951 15.0139 28.7009 15.6031C28.6067 16.1924 28.744 16.7316 29.0476 17.1455L26.9861 14.3354C26.6825 13.9215 26.5452 13.3823 26.6394 12.793C26.7336 12.2037 26.5963 11.6655 26.2926 11.2516Z" fill="#D0D5DD"/>
<path d="M29.0486 17.371C28.9795 17.371 28.9103 17.339 28.8662 17.2788L26.8047 14.4687C26.4549 13.9916 26.3166 13.3833 26.4169 12.7569C26.497 12.2518 26.3888 11.7648 26.1112 11.3859L26.1102 11.3849C26.037 11.2847 26.0581 11.1434 26.1583 11.0692C26.2585 10.9961 26.3998 11.0171 26.474 11.1173C26.474 11.1183 26.475 11.1183 26.475 11.1183L28.5355 13.9275C28.8853 14.4045 29.0226 15.0119 28.9233 15.6372C28.8432 16.1433 28.9514 16.6304 29.228 17.0092L29.229 17.0112C29.3022 17.1115 29.2811 17.2528 29.1809 17.3269C29.1418 17.357 29.0947 17.371 29.0486 17.371ZM26.8939 12.4523C26.8929 12.5765 26.8829 12.7018 26.8628 12.8281C26.7817 13.3342 26.8909 13.8223 27.1695 14.2021L28.4473 15.9449C28.4483 15.8206 28.4583 15.6944 28.4794 15.5681C28.5605 15.062 28.4513 14.5749 28.1737 14.1961L26.8939 12.4523Z" fill="#F9FAFB"/>
<mask id="mask0_419_20428" style="mask-type:luminance" maskUnits="userSpaceOnUse" x="26" y="11" width="4" height="7">
<mask id="mask1_419_20428" style="mask-type:luminance" maskUnits="userSpaceOnUse" x="26" y="11" width="4" height="7">
<path d="M26.2926 11.2516L28.3541 14.0618C28.6578 14.4757 28.7951 15.0139 28.7009 15.6031C28.6067 16.1924 28.744 16.7316 29.0476 17.1455L26.9861 14.3354C26.6825 13.9215 26.5452 13.3823 26.6394 12.793C26.7336 12.2037 26.5963 11.6655 26.2926 11.2516Z" fill="white"/>
</mask>
<g mask="url(#mask1_419_20428)">
<path d="M29.0486 17.371C28.9795 17.371 28.9103 17.3389 28.8662 17.2788L26.8047 14.4686C26.4549 13.9916 26.3166 13.3833 26.4169 12.7569C26.497 12.2518 26.3888 11.7647 26.1112 11.3859L26.1102 11.3849C26.037 11.2847 26.0581 11.1434 26.1583 11.0692C26.2585 10.996 26.3998 11.0171 26.474 11.1173C26.474 11.1183 26.475 11.1183 26.475 11.1183L28.5355 13.9275C28.8853 14.4045 29.0226 15.0118 28.9233 15.6372C28.8432 16.1433 28.9514 16.6304 29.228 17.0092L29.229 17.0112C29.3022 17.1114 29.2811 17.2527 29.1809 17.3269C29.1418 17.357 29.0947 17.371 29.0486 17.371ZM26.8939 12.4522C26.8929 12.5765 26.8829 12.7018 26.8628 12.8281C26.7817 13.3342 26.8909 13.8222 27.1695 14.2021L28.4473 15.9449C28.4483 15.8206 28.4583 15.6943 28.4794 15.568C28.5605 15.0619 28.4513 14.5749 28.1737 14.196L26.8939 12.4522Z" fill="white"/>
</g>
</mask>
<g mask="url(#mask0_419_20428)">
<path d="M26.2926 11.2516L28.3541 14.0618C28.3701 14.0838 28.3862 14.1069 28.4022 14.1299L26.3407 11.3198C26.3257 11.2967 26.3096 11.2737 26.2926 11.2516Z" fill="#D0D5DD"/>
<path d="M28.4022 14.3554C28.333 14.3554 28.2639 14.3233 28.2198 14.2632L26.1583 11.4531C26.1393 11.425 26.1252 11.4049 26.1102 11.3849C26.037 11.2847 26.0581 11.1434 26.1583 11.0702C26.2585 10.9961 26.3998 11.0181 26.474 11.1183L28.5355 13.9285C28.5535 13.9535 28.5716 13.9786 28.5886 14.0046C28.6568 14.1069 28.6307 14.2442 28.5305 14.3143C28.4924 14.3424 28.4473 14.3554 28.4022 14.3554Z" fill="#F9FAFB"/>
<path d="M26.3407 11.3198L28.4022 14.1299C28.4423 14.1901 28.4794 14.2532 28.5135 14.3184L26.4519 11.5082C26.4179 11.4431 26.3808 11.3799 26.3407 11.3198Z" fill="#D0D5DD"/>
<path d="M28.5134 14.5438C28.4443 14.5438 28.3751 14.5118 28.331 14.4516L26.2695 11.6415C26.2625 11.6315 26.2565 11.6214 26.2505 11.6114C26.2214 11.5543 26.1883 11.4982 26.1522 11.4451C26.0841 11.3428 26.1101 11.2055 26.2104 11.1354C26.3106 11.0652 26.4489 11.0883 26.521 11.1865L28.5826 13.9966C28.6337 14.0718 28.6748 14.143 28.7118 14.2151C28.766 14.3193 28.7299 14.4476 28.6297 14.5098C28.5946 14.5328 28.5535 14.5438 28.5134 14.5438Z" fill="#F9FAFB"/>
<path d="M26.4519 11.5082L28.5134 14.3183C28.5505 14.3905 28.5826 14.4647 28.6106 14.5418L26.5491 11.7317C26.5211 11.6545 26.488 11.5803 26.4519 11.5082Z" fill="#D0D5DD"/>
<path d="M28.6106 14.7673C28.5405 14.7673 28.4723 14.7352 28.4282 14.6751L26.3667 11.865C26.3537 11.8479 26.3437 11.8289 26.3366 11.8088C26.3126 11.7417 26.2835 11.6755 26.2504 11.6114C26.1963 11.5072 26.2324 11.3789 26.3326 11.3168C26.4328 11.2546 26.5631 11.2807 26.6333 11.3749L28.6948 14.185C28.7018 14.1951 28.7078 14.2051 28.7138 14.2151C28.7549 14.2953 28.792 14.3795 28.8221 14.4646C28.8602 14.5699 28.8151 14.6871 28.7158 14.7402C28.6828 14.7593 28.6467 14.7673 28.6106 14.7673Z" fill="#F9FAFB"/>
<path d="M26.5492 11.7317L28.6107 14.5418C28.6448 14.636 28.6718 14.7333 28.6919 14.8335L26.6304 12.0233C26.6103 11.9231 26.5833 11.8259 26.5492 11.7317Z" fill="#D0D5DD"/>
<path d="M28.6918 15.06C28.6217 15.06 28.5535 15.0269 28.5094 14.9678L26.4479 12.1576C26.4289 12.1306 26.4149 12.1005 26.4088 12.0674C26.3918 11.9792 26.3678 11.892 26.3367 11.8088C26.2986 11.7036 26.3437 11.5864 26.4429 11.5332C26.5421 11.4801 26.6644 11.5082 26.7306 11.5984L28.7921 14.4085C28.8051 14.4256 28.8151 14.4446 28.8221 14.4647C28.8602 14.5699 28.8903 14.6791 28.9123 14.7904C28.9324 14.8936 28.8783 14.9978 28.782 15.0399C28.753 15.0539 28.7219 15.06 28.6918 15.06Z" fill="#F9FAFB"/>
<path d="M26.6304 12.0233L28.6919 14.8335C28.739 15.074 28.745 15.3336 28.7019 15.6021C28.6588 15.8717 28.6638 16.1303 28.7119 16.3708L26.6504 13.5607C26.6033 13.3202 26.5973 13.0616 26.6404 12.792C26.6825 12.5234 26.6775 12.2648 26.6304 12.0233Z" fill="#D0D5DD"/>
<path d="M28.7109 16.5973C28.6408 16.5973 28.5726 16.5643 28.5285 16.5051L26.467 13.695C26.447 13.6679 26.434 13.6379 26.4279 13.6048C26.3748 13.3322 26.3708 13.0466 26.4169 12.7569C26.455 12.5194 26.452 12.2879 26.4089 12.0674C26.3889 11.9642 26.443 11.86 26.5392 11.8179C26.6354 11.7758 26.7486 11.8058 26.8118 11.891L28.8733 14.7012C28.8923 14.7282 28.9064 14.7583 28.9124 14.7914C28.9665 15.064 28.9705 15.3496 28.9234 15.6392C28.8853 15.8768 28.8883 16.1083 28.9314 16.3287C28.9515 16.432 28.8973 16.5362 28.8011 16.5783C28.7721 16.5913 28.742 16.5973 28.7109 16.5973ZM26.8619 13.4695L28.4654 15.6563C28.4694 15.6272 28.4734 15.5971 28.4784 15.5671C28.5135 15.3476 28.5135 15.1311 28.4784 14.9257L26.8749 12.7389C26.8709 12.768 26.8669 12.798 26.8619 12.8271C26.8278 13.0476 26.8278 13.263 26.8619 13.4695Z" fill="#F9FAFB"/>
<path d="M26.6494 13.5607L28.7109 16.3708C28.731 16.471 28.758 16.5693 28.7921 16.6635L26.7306 13.8533C26.6965 13.7591 26.6695 13.6619 26.6494 13.5607Z" fill="#D0D5DD"/>
<path d="M28.792 16.89C28.7219 16.89 28.6537 16.8579 28.6096 16.7978L26.5481 13.9876C26.5351 13.9706 26.5251 13.9515 26.518 13.9305C26.48 13.8253 26.4499 13.716 26.4279 13.6048C26.4078 13.5015 26.4619 13.3973 26.5581 13.3552C26.6553 13.3131 26.7676 13.3432 26.8307 13.4284L28.8922 16.2385C28.9123 16.2656 28.9253 16.2957 28.9313 16.3287C28.9484 16.4169 28.9724 16.5041 29.0035 16.5883C29.0416 16.6935 28.9965 16.8108 28.8973 16.8639C28.8642 16.8809 28.8281 16.89 28.792 16.89Z" fill="#F9FAFB"/>
<path d="M26.7306 13.8533L28.7921 16.6635C28.8202 16.7407 28.8522 16.8158 28.8893 16.887L26.8278 14.0768C26.7907 14.0057 26.7587 13.9305 26.7306 13.8533Z" fill="#D0D5DD"/>
<path d="M28.8893 17.1135C28.8201 17.1135 28.751 17.0814 28.7069 17.0213L26.6454 14.2111C26.6383 14.2011 26.6323 14.1911 26.6263 14.181C26.5852 14.1009 26.5482 14.0167 26.5181 13.9315C26.48 13.8263 26.5251 13.709 26.6243 13.6559C26.7235 13.6028 26.8458 13.6308 26.9119 13.721L28.9735 16.5312C28.9865 16.5482 28.9965 16.5673 29.0035 16.5883C29.0276 16.6555 29.0566 16.7226 29.0897 16.7857C29.1438 16.89 29.1078 17.0183 29.0075 17.0804C28.9715 17.1024 28.9304 17.1135 28.8893 17.1135Z" fill="#F9FAFB"/>
<path d="M26.8278 14.0778L28.8893 16.888C28.9223 16.9531 28.9594 17.0162 29.0005 17.0764L26.939 14.2662C26.8979 14.2051 26.8618 14.143 26.8278 14.0778Z" fill="#D0D5DD"/>
<path d="M29.0005 17.3019C28.9313 17.3019 28.8622 17.2698 28.8181 17.2097L26.7566 14.3995C26.7055 14.3244 26.6644 14.2532 26.6273 14.18C26.5732 14.0758 26.6092 13.9475 26.7095 13.8854C26.8097 13.8233 26.94 13.8493 27.0101 13.9435L29.0716 16.7537C29.0786 16.7637 29.0847 16.7737 29.0907 16.7837C29.1197 16.8409 29.1528 16.897 29.1889 16.9501C29.257 17.0523 29.231 17.1896 29.1308 17.2598C29.0897 17.2888 29.0446 17.3019 29.0005 17.3019Z" fill="#F9FAFB"/>
<path d="M26.939 14.2662L29.0005 17.0764C29.0165 17.0994 29.0325 17.1225 29.0486 17.1455L26.9871 14.3354C26.97 14.3123 26.954 14.2893 26.939 14.2662Z" fill="#D0D5DD"/>
<path d="M29.0486 17.371C28.9795 17.371 28.9113 17.3389 28.8672 17.2788V17.2778C28.8672 17.2768 28.8662 17.2768 28.8662 17.2758L26.8067 14.4677C26.7887 14.4426 26.7706 14.4165 26.7526 14.3905C26.6844 14.2883 26.7105 14.151 26.8107 14.0808C26.9109 14.0107 27.0492 14.0337 27.1214 14.1319L29.1829 16.9421C29.2019 16.9701 29.215 16.9892 29.229 17.0082L29.23 17.0102C29.3032 17.1104 29.2821 17.2518 29.1819 17.3249C29.1418 17.357 29.0947 17.371 29.0486 17.371Z" fill="#F9FAFB"/>
</g>
<path d="M30.7745 18.1928C29.9877 18.1928 29.2922 17.8601 28.8663 17.2788L26.8048 14.4687C26.7316 14.3684 26.7527 14.2271 26.8529 14.153C26.9531 14.0788 27.0944 14.1009 27.1686 14.2011L27.1696 14.2021C27.5093 14.6651 28.0715 14.9307 28.7129 14.9307C28.7851 14.9307 28.8522 14.9648 28.8943 15.0229L30.9559 17.833C31.006 17.9012 31.014 17.9924 30.9749 18.0685C30.9368 18.1447 30.8596 18.1928 30.7745 18.1928ZM27.9533 15.2714L29.2301 17.0122C29.4816 17.355 29.8534 17.5895 30.2904 17.6887L28.5967 15.3797C28.3722 15.3696 28.1567 15.3336 27.9533 15.2714Z" fill="#F9FAFB"/>
<mask id="mask2_419_20428" style="mask-type:luminance" maskUnits="userSpaceOnUse" x="26" y="14" width="5" height="5">
<path d="M30.7745 18.1928C29.9877 18.1928 29.2922 17.8601 28.8663 17.2788L26.8048 14.4687C26.7316 14.3684 26.7527 14.2271 26.8529 14.153C26.9531 14.0788 27.0944 14.1009 27.1686 14.2011L27.1696 14.2021C27.5093 14.6651 28.0715 14.9307 28.7129 14.9307C28.7851 14.9307 28.8522 14.9648 28.8943 15.0229L30.9559 17.833C31.006 17.9012 31.014 17.9924 30.9749 18.0685C30.9368 18.1447 30.8596 18.1928 30.7745 18.1928ZM27.9533 15.2714L29.2301 17.0122C29.4816 17.355 29.8534 17.5895 30.2904 17.6887L28.5967 15.3797C28.3722 15.3696 28.1567 15.3336 27.9533 15.2714Z" fill="white"/>
</mask>
<g mask="url(#mask2_419_20428)">
<path d="M28.713 15.1562L30.7745 17.9663C30.0318 17.9663 29.4175 17.6476 29.0487 17.1445L26.9872 14.3344C27.356 14.8385 27.9703 15.1562 28.713 15.1562Z" fill="#667185"/>
<path d="M30.7745 18.1928C29.9877 18.1928 29.2922 17.8601 28.8663 17.2788L26.8048 14.4687C26.7316 14.3684 26.7527 14.2271 26.8529 14.153C26.9531 14.0788 27.0944 14.1009 27.1686 14.2011L27.1696 14.2021C27.5093 14.6651 28.0715 14.9307 28.7129 14.9307C28.7851 14.9307 28.8522 14.9648 28.8943 15.0229L30.9559 17.833C31.006 17.9012 31.014 17.9924 30.9749 18.0685C30.9368 18.1447 30.8596 18.1928 30.7745 18.1928ZM27.9533 15.2714L29.2301 17.0122C29.4816 17.355 29.8534 17.5895 30.2904 17.6887L28.5967 15.3797C28.3722 15.3696 28.1567 15.3336 27.9533 15.2714Z" fill="#F9FAFB"/>
</g>
<path d="M48.1875 15.1562L50.249 17.9673H30.7744L28.7129 15.1562H48.1875Z" fill="#98A2B3"/>
<path d="M50.2491 18.1928H30.7744C30.7023 18.1928 30.6351 18.1587 30.593 18.1006L28.5315 15.2905C28.4814 15.2223 28.4734 15.1311 28.5125 15.0549C28.5506 14.9788 28.6287 14.9317 28.7139 14.9317H48.1885C48.2607 14.9317 48.3279 14.9657 48.3699 15.0239L50.4315 17.834C50.4816 17.9022 50.4896 17.9934 50.4505 18.0695C50.4114 18.1447 50.3342 18.1928 50.2491 18.1928ZM30.8887 17.7418H49.8041L48.0733 15.3827H29.1579L30.8887 17.7418Z" fill="#F9FAFB"/>
<path d="M51.9758 19.0136C51.9067 19.0136 51.8375 18.9815 51.7934 18.9214C51.4537 18.4574 50.8905 18.1918 50.249 18.1918C50.1769 18.1918 50.1097 18.1577 50.0677 18.0996L48.0061 15.2895C47.956 15.2213 47.948 15.1301 47.9871 15.0539C48.0252 14.9778 48.1034 14.9307 48.1885 14.9307C48.9753 14.9307 49.6708 15.2634 50.0967 15.8447L52.1582 18.6548C52.2314 18.755 52.2103 18.8963 52.1101 18.9705C52.068 18.9996 52.0219 19.0136 51.9758 19.0136ZM50.3653 17.7438C50.5898 17.7528 50.8053 17.7899 51.0087 17.8521L49.7319 16.1112C49.4804 15.7685 49.1076 15.534 48.6716 15.4348L50.3653 17.7438Z" fill="#F9FAFB"/>
<mask id="mask3_419_20428" style="mask-type:luminance" maskUnits="userSpaceOnUse" x="47" y="14" width="6" height="6">
<path d="M51.9758 19.0136C51.9067 19.0136 51.8375 18.9815 51.7934 18.9214C51.4537 18.4574 50.8905 18.1918 50.249 18.1918C50.1769 18.1918 50.1097 18.1577 50.0677 18.0996L48.0061 15.2895C47.956 15.2213 47.948 15.1301 47.9871 15.0539C48.0252 14.9778 48.1034 14.9307 48.1885 14.9307C48.9753 14.9307 49.6708 15.2634 50.0967 15.8447L52.1582 18.6548C52.2314 18.755 52.2103 18.8963 52.1101 18.9705C52.068 18.9996 52.0219 19.0136 51.9758 19.0136ZM50.3653 17.7438C50.5898 17.7528 50.8053 17.7899 51.0087 17.8521L49.7319 16.1112C49.4804 15.7685 49.1076 15.534 48.6716 15.4348L50.3653 17.7438Z" fill="white"/>
</mask>
<g mask="url(#mask3_419_20428)">
<path d="M49.9134 15.978L51.9749 18.7881C51.6061 18.285 50.9918 17.9663 50.2491 17.9663L48.1876 15.1562C48.9302 15.1562 49.5446 15.4749 49.9134 15.978Z" fill="#667185"/>
<path d="M51.9758 19.0136C51.9067 19.0136 51.8375 18.9815 51.7934 18.9214C51.4537 18.4574 50.8905 18.1918 50.249 18.1918C50.1769 18.1918 50.1097 18.1577 50.0677 18.0996L48.0061 15.2895C47.956 15.2213 47.948 15.1301 47.9871 15.0539C48.0252 14.9778 48.1034 14.9307 48.1885 14.9307C48.9753 14.9307 49.6708 15.2634 50.0967 15.8447L52.1582 18.6548C52.2314 18.755 52.2103 18.8963 52.1101 18.9705C52.068 18.9996 52.0219 19.0136 51.9758 19.0136ZM50.3653 17.7438C50.5898 17.7528 50.8053 17.7899 51.0087 17.8521L49.7319 16.1112C49.4804 15.7685 49.1076 15.534 48.6716 15.4348L50.3653 17.7438Z" fill="#F9FAFB"/>
</g>
<path d="M39.3051 28.8992L38.2087 35.7773H17.801L18.8984 28.8992H39.3051Z" fill="#F9FAFB"/>
<path d="M52.3476 20.0519C52.3496 20.0068 52.3506 19.9607 52.3496 19.9156C52.3486 19.8885 52.3466 19.8634 52.3446 19.8364C52.3426 19.7963 52.3396 19.7562 52.3346 19.7171C52.3315 19.6901 52.3265 19.663 52.3225 19.6359C52.3185 19.6109 52.3165 19.5858 52.3115 19.5618C52.3085 19.5478 52.3045 19.5337 52.3015 19.5197C52.2975 19.5006 52.2925 19.4816 52.2885 19.4636C52.2774 19.4205 52.2654 19.3774 52.2524 19.3363C52.2474 19.3203 52.2424 19.3052 52.2373 19.2892C52.2353 19.2832 52.2333 19.2762 52.2313 19.2701C52.2263 19.2551 52.2183 19.2421 52.2123 19.2271C52.1922 19.1759 52.1712 19.1258 52.1471 19.0777C52.1421 19.0677 52.1391 19.0567 52.1331 19.0467C52.1261 19.0326 52.1171 19.0196 52.1091 19.0056C52.089 18.9695 52.068 18.9334 52.0459 18.8983C52.0379 18.8853 52.0309 18.8713 52.0219 18.8582C52.0068 18.8352 51.9908 18.8121 51.9738 18.7891L49.9123 15.9789C49.9383 16.014 49.9614 16.0511 49.9844 16.0882C50.0065 16.1233 50.0275 16.1583 50.0476 16.1954C50.0606 16.2195 50.0736 16.2435 50.0856 16.2676C50.1097 16.3157 50.1307 16.3658 50.1508 16.4169C50.1588 16.4379 50.1678 16.458 50.1758 16.479C50.1808 16.4941 50.1859 16.5101 50.1909 16.5261C50.2039 16.5682 50.2169 16.6103 50.2269 16.6534C50.232 16.6725 50.236 16.6905 50.24 16.7095C50.248 16.7476 50.255 16.7867 50.261 16.8258C50.265 16.8529 50.27 16.8799 50.273 16.907C50.2781 16.9461 50.2801 16.9861 50.2831 17.0262C50.2851 17.0523 50.2871 17.0783 50.2881 17.1054C50.2891 17.1505 50.2871 17.1956 50.2861 17.2417C50.2851 17.2648 50.2861 17.2868 50.2841 17.3099C50.2791 17.379 50.272 17.4482 50.261 17.5193L46.1741 43.1454L48.2356 45.9555L52.3225 20.3295C52.3336 20.2593 52.3416 20.1892 52.3456 20.12C52.3476 20.097 52.3466 20.0749 52.3476 20.0519Z" fill="#D0D5DD"/>
<path d="M48.2346 46.182C48.1635 46.182 48.0963 46.149 48.0533 46.0898L45.9917 43.2797C45.9557 43.2316 45.9416 43.1705 45.9507 43.1103L50.0376 17.4842C50.0476 17.4231 50.0546 17.361 50.0586 17.2948C50.0596 17.2848 50.0596 17.2748 50.0596 17.2648L50.0606 17.2337C50.0627 17.1926 50.0637 17.1515 50.0627 17.1114C50.0627 17.0964 50.0617 17.0824 50.0606 17.0673L50.0586 17.0413C50.0566 17.0052 50.0546 16.9691 50.0506 16.934C50.0486 16.916 50.0456 16.898 50.0426 16.8799L50.0396 16.8609C50.0346 16.8268 50.0286 16.7917 50.0206 16.7577C50.0165 16.7416 50.0125 16.7246 50.0085 16.7085C49.9985 16.6695 49.9885 16.6324 49.9765 16.5953L49.9634 16.5532C49.9604 16.5452 49.9564 16.5362 49.9534 16.5272L49.9414 16.4981C49.9223 16.448 49.9033 16.4049 49.8843 16.3658C49.8732 16.3437 49.8622 16.3227 49.8512 16.3017C49.8341 16.2696 49.8151 16.2385 49.7961 16.2075L49.785 16.1904C49.768 16.1634 49.751 16.1363 49.7329 16.1112C49.6598 16.011 49.6808 15.8697 49.781 15.7955C49.8813 15.7224 50.0226 15.7434 50.0967 15.8437L52.1582 18.6538C52.1773 18.6789 52.1943 18.7049 52.2124 18.731C52.2204 18.743 52.2274 18.756 52.2344 18.7681C52.2635 18.8142 52.2865 18.8542 52.3086 18.8953C52.3216 18.9164 52.3286 18.9284 52.3356 18.9424C52.3406 18.9525 52.3456 18.9645 52.3507 18.9765C52.3747 19.0266 52.3988 19.0817 52.4228 19.1429C52.4318 19.1629 52.4388 19.1769 52.4439 19.191C52.4469 19.199 52.4489 19.206 52.4509 19.213C52.4549 19.2261 52.4589 19.2381 52.4629 19.2511L52.4669 19.2651C52.4819 19.3112 52.496 19.3593 52.508 19.4075C52.513 19.4285 52.518 19.4485 52.523 19.4706L52.526 19.4826C52.529 19.4936 52.5321 19.5057 52.5341 19.5167C52.5381 19.5367 52.5411 19.5568 52.5431 19.5758L52.5491 19.6159C52.5531 19.64 52.5571 19.664 52.5601 19.6891C52.5651 19.7332 52.5681 19.7773 52.5711 19.8224L52.5731 19.8464C52.5752 19.8675 52.5762 19.8885 52.5762 19.9096C52.5772 19.9597 52.5762 20.0098 52.5742 20.0589V20.0799C52.5742 20.098 52.5731 20.116 52.5721 20.135C52.5671 20.2132 52.5581 20.2904 52.5461 20.3635L48.4591 45.9896C48.4451 46.0798 48.378 46.152 48.2898 46.173C48.2707 46.179 48.2527 46.182 48.2346 46.182ZM46.4107 43.0883L48.0973 45.3873L52.0991 20.2944C52.1091 20.2343 52.1161 20.1701 52.1202 20.105C52.1212 20.094 52.1212 20.0849 52.1212 20.0749L52.1222 20.0438C52.1222 20.0438 52.1222 20.0438 52.1222 20.0428C52.1242 20.0018 52.1252 19.9607 52.1242 19.9206C52.1242 19.9065 52.1232 19.8925 52.1222 19.8785L52.1202 19.8494C52.1181 19.8133 52.1161 19.7773 52.1121 19.7422C52.1101 19.7241 52.1071 19.7061 52.1041 19.6881L52.0961 19.637C52.0951 19.6259 52.0931 19.6149 52.0911 19.6039L52.0821 19.5668C52.0781 19.5508 52.0741 19.5337 52.07 19.5177C52.06 19.4786 52.05 19.4415 52.038 19.4044L52.0249 19.3634C52.0239 19.3604 52.0199 19.3483 52.0189 19.3453C52.0119 19.3313 52.0069 19.3203 52.0029 19.3082C51.9839 19.2581 51.9648 19.215 51.9458 19.1759C51.9408 19.1659 51.9368 19.1559 51.9327 19.1469C51.9237 19.1319 51.9177 19.1228 51.9127 19.1128C51.8957 19.0807 51.8766 19.0497 51.8576 19.0186C51.8516 19.0086 51.8456 18.9996 51.8405 18.9895C51.8235 18.9625 51.8095 18.9424 51.7944 18.9224L50.5146 17.1776C50.5136 17.2016 50.5136 17.2257 50.5126 17.2497V17.2718C50.5126 17.2898 50.5116 17.3079 50.5106 17.3259C50.5056 17.4061 50.4966 17.4812 50.4846 17.5554L46.4107 43.0883Z" fill="#F9FAFB"/>
<path d="M63.7687 32.3378L61.0287 49.5194H45.157L46.1742 43.1454L47.897 32.3378H56.8255H58.8459H60.8644H63.7687Z" fill="#D0D5DD"/>
<path d="M61.0287 49.7449H45.157C45.0908 49.7449 45.0287 49.7158 44.9856 49.6657C44.9425 49.6156 44.9244 49.5494 44.9345 49.4843L47.6745 32.3027C47.6915 32.1934 47.7867 32.1123 47.8969 32.1123H63.7687C63.8348 32.1123 63.897 32.1413 63.9401 32.1914C63.9832 32.2416 64.0012 32.3077 63.9912 32.3728L61.2512 49.5544C61.2341 49.6647 61.1399 49.7449 61.0287 49.7449ZM45.4215 49.2939H60.8363L63.5041 32.5633H48.0894L45.4215 49.2939Z" fill="#F9FAFB"/>
<path d="M48.1876 15.1561C49.5406 15.1561 50.4686 16.2135 50.2611 17.5193L46.1742 43.1454L45.158 49.5193H8.91967C7.56671 49.5193 6.63768 48.462 6.84513 47.1562L11.9483 15.1561L12.3251 12.792C12.5336 11.4871 13.7993 10.4288 15.1533 10.4288H24.5649C25.2464 10.4288 25.8207 10.6964 26.1955 11.1293C26.5653 11.5563 26.7427 12.1436 26.6394 12.791C26.431 14.0968 27.359 15.1551 28.712 15.1551H48.1876V15.1561ZM38.2088 35.7773L39.3052 28.8992H18.8985L17.8011 35.7773H38.2088Z" fill="#D0D5DD"/>
<path d="M45.1569 49.7448H8.91962C8.18702 49.7448 7.54361 49.4632 7.10766 48.9531C6.68573 48.458 6.51336 47.8076 6.62259 47.1211L12.1036 12.7569C12.3281 11.3488 13.6971 10.2043 15.1543 10.2043H24.5659C25.2925 10.2043 25.9319 10.4809 26.3668 10.983C26.7967 11.4791 26.9731 12.1345 26.8629 12.8281C26.7747 13.3833 26.91 13.9054 27.2457 14.2983C27.5935 14.7062 28.1146 14.9307 28.7129 14.9307H48.1876C48.9202 14.9307 49.5636 15.2113 49.9985 15.7214C50.4204 16.2165 50.5928 16.8669 50.4836 17.5544L45.3804 49.5544C45.3624 49.6647 45.2682 49.7448 45.1569 49.7448ZM15.1543 10.6553C13.9085 10.6553 12.74 11.6304 12.5486 12.8281L7.06757 47.1923C6.97938 47.7465 7.11467 48.2676 7.45041 48.6605C7.79917 49.0694 8.32031 49.2939 8.91962 49.2939H44.9645L50.0376 17.4842C50.1258 16.93 49.9905 16.4079 49.6548 16.015C49.307 15.6071 48.7849 15.3826 48.1866 15.3826H28.7129C27.9803 15.3826 27.3379 15.102 26.902 14.5919C26.48 14.0968 26.3077 13.4454 26.4169 12.7579C26.5061 12.1977 26.3668 11.6725 26.0261 11.2787C25.6773 10.8768 25.1592 10.6553 24.5659 10.6553H15.1543ZM38.2087 36.0028H17.8011C17.7349 36.0028 17.6728 35.9737 17.6297 35.9236C17.5866 35.8735 17.5685 35.8073 17.5786 35.7422L18.676 28.8641C18.693 28.7549 18.7882 28.6737 18.8985 28.6737H39.3051C39.3713 28.6737 39.4334 28.7028 39.4765 28.7529C39.5196 28.803 39.5376 28.8692 39.5276 28.9343L38.4302 35.8124C38.4132 35.9216 38.319 36.0028 38.2087 36.0028ZM18.0656 35.5518H38.0163L39.0415 29.1247H19.0909L18.0656 35.5518Z" fill="#F9FAFB"/>
<path d="M63.7687 32.3378L65.8302 35.1479L63.0902 52.3295L61.0287 49.5194L63.7687 32.3378Z" fill="#D0D5DD"/>
<path d="M63.0901 52.555C63.019 52.555 62.9518 52.5219 62.9087 52.4628L60.8472 49.6527C60.8111 49.6046 60.7971 49.5434 60.8061 49.4833L63.5461 32.3017C63.5602 32.2115 63.6273 32.1393 63.7155 32.1183C63.8037 32.0973 63.8969 32.1303 63.95 32.2045L66.0115 35.0146C66.0476 35.0627 66.0616 35.1239 66.0526 35.184L63.3126 52.3656C63.2986 52.4558 63.2314 52.528 63.1432 52.549C63.1252 52.553 63.1082 52.555 63.0901 52.555ZM61.2661 49.4623L62.9528 51.7613L65.5936 35.2061L63.9069 32.907L61.2661 49.4623Z" fill="#F9FAFB"/>
<path d="M63.0901 52.3295L61.0286 49.5194H45.1568H8.91953C8.1769 49.5194 7.56156 49.2007 7.19275 48.6976L9.25426 51.5077C9.62407 52.0108 10.2384 52.3295 10.982 52.3295H47.2193H63.0901Z" fill="#667185"/>
<path d="M63.0901 52.555H10.981C10.1943 52.555 9.49777 52.2213 9.07184 51.641L7.01033 48.8308C6.93717 48.7306 6.95822 48.5893 7.05844 48.5152C7.15866 48.442 7.29997 48.463 7.37413 48.5633C7.71487 49.0273 8.27811 49.2939 8.91951 49.2939H61.0285C61.1007 49.2939 61.1679 49.3279 61.2099 49.3861L63.2715 52.1962C63.3216 52.2644 63.3296 52.3556 63.2905 52.4317C63.2534 52.5079 63.1752 52.555 63.0901 52.555ZM8.15885 49.6336L9.43564 51.3744C9.77639 51.8384 10.3396 52.105 10.981 52.105H62.6451L60.9143 49.7458H8.91951C8.65293 49.7448 8.39737 49.7068 8.15885 49.6336Z" fill="#F9FAFB"/>
<path d="M68.6753 20.2794C69.4989 20.2794 70.1666 19.6117 70.1666 18.7881C70.1666 17.9645 69.4989 17.2968 68.6753 17.2968C67.8517 17.2968 67.1841 17.9645 67.1841 18.7881C67.1841 19.6117 67.8517 20.2794 68.6753 20.2794Z" fill="#F9FAFB"/>
<path d="M7.74602 25.5539C8.56963 25.5539 9.23729 24.8862 9.23729 24.0626C9.23729 23.239 8.56963 22.5714 7.74602 22.5714C6.92242 22.5714 6.25476 23.239 6.25476 24.0626C6.25476 24.8862 6.92242 25.5539 7.74602 25.5539Z" fill="#F9FAFB"/>
<path d="M8.49256 26.7596C8.78259 26.7596 9.01771 26.5244 9.01771 26.2344C9.01771 25.9444 8.78259 25.7093 8.49256 25.7093C8.20253 25.7093 7.96741 25.9444 7.96741 26.2344C7.96741 26.5244 8.20253 26.7596 8.49256 26.7596Z" fill="#F9FAFB"/>
<path d="M20.56 7.76899C21.9769 7.76899 23.1256 6.62032 23.1256 5.20337C23.1256 3.78642 21.9769 2.63776 20.56 2.63776C19.1431 2.63776 17.9944 3.78642 17.9944 5.20337C17.9944 6.62032 19.1431 7.76899 20.56 7.76899Z" fill="#E4E7EC"/>
<path d="M17.9955 3.93761C18.6702 3.93761 19.2172 3.39065 19.2172 2.71594C19.2172 2.04122 18.6702 1.49426 17.9955 1.49426C17.3208 1.49426 16.7738 2.04122 16.7738 2.71594C16.7738 3.39065 17.3208 3.93761 17.9955 3.93761Z" fill="#F9FAFB"/>
</svg>
