<svg width="1064" height="368" viewBox="0 0 1064 368" fill="none" xmlns="http://www.w3.org/2000/svg">
<path d="M1030.75 -73H1102V0.333335M1030.75 -73V0.333335M1030.75 -73H959.5M1030.75 0.333335H1102M1030.75 0.333335V73.6667M1030.75 0.333335H959.5M1102 0.333335V73.6667M1030.75 73.6667H1102M1030.75 73.6667V147M1030.75 73.6667H959.5M1102 73.6667V147M1030.75 147H1102M1030.75 147V220.333M1030.75 147H959.5M1102 147V220.333M1030.75 220.333H1102M1030.75 220.333V293.667M1030.75 220.333H959.5M1102 220.333V293.667M1030.75 293.667H1102M1030.75 293.667V367M1030.75 293.667H959.5M1102 293.667V367H1030.75M1030.75 367H959.5M959.5 -73V0.333335M959.5 -73H888.25M959.5 0.333335V73.6667M959.5 0.333335H888.25M959.5 73.6667V147M959.5 73.6667H888.25M959.5 147V220.333M959.5 147H888.25M959.5 220.333V293.667M959.5 220.333H888.25M959.5 293.667V367M959.5 293.667H888.25M959.5 367H888.25M888.25 -73V0.333335M888.25 -73H817M888.25 0.333335V73.6667M888.25 0.333335H817M888.25 73.6667V147M888.25 73.6667H817M888.25 147V220.333M888.25 147H817M888.25 220.333V293.667M888.25 220.333H817M888.25 293.667V367M888.25 293.667H817M888.25 367H817M817 -73V0.333335M817 -73H745.75M817 0.333335V73.6667M817 0.333335H745.75M817 73.6667V147M817 73.6667H745.75M817 147V220.333M817 147H745.75M817 220.333V293.667M817 220.333H745.75M817 293.667V367M817 293.667H745.75M817 367H745.75M745.75 -73V0.333335M745.75 -73H674.5M745.75 0.333335V73.6667M745.75 0.333335H674.5M745.75 73.6667V147M745.75 73.6667H674.5M745.75 147V220.333M745.75 147H674.5M745.75 220.333V293.667M745.75 220.333H674.5M745.75 293.667V367M745.75 293.667H674.5M745.75 367H674.5M674.5 -73V0.333335M674.5 -73H603.25M674.5 0.333335V73.6667M674.5 0.333335H603.25M674.5 73.6667V147M674.5 73.6667H603.25M674.5 147V220.333M674.5 147H603.25M674.5 220.333V293.667M674.5 220.333H603.25M674.5 293.667V367M674.5 293.667H603.25M674.5 367H603.25M603.25 -73V0.333335M603.25 -73H532M603.25 0.333335V73.6667M603.25 0.333335H532M603.25 73.6667V147M603.25 73.6667H532M603.25 147V220.333M603.25 147H532M603.25 220.333V293.667M603.25 220.333H532M603.25 293.667V367M603.25 293.667H532M603.25 367H532M532 -73V0.333335M532 -73H460.75M532 0.333335V73.6667M532 0.333335H460.75M532 73.6667V147M532 73.6667H460.75M532 147V220.333M532 147H460.75M532 220.333V293.667M532 220.333H460.75M532 293.667V367M532 293.667H460.75M532 367H460.75M460.75 -73V0.333335M460.75 -73H389.5M460.75 0.333335V73.6667M460.75 0.333335H389.5M460.75 73.6667V147M460.75 73.6667H389.5M460.75 147V220.333M460.75 147H389.5M460.75 220.333V293.667M460.75 220.333H389.5M460.75 293.667V367M460.75 293.667H389.5M460.75 367H389.5M389.5 -73V0.333335M389.5 -73H318.25M389.5 0.333335V73.6667M389.5 0.333335H318.25M389.5 73.6667V147M389.5 73.6667H318.25M389.5 147V220.333M389.5 147H318.25M389.5 220.333V293.667M389.5 220.333H318.25M389.5 293.667V367M389.5 293.667H318.25M389.5 367H318.25M318.25 -73V0.333335M318.25 -73H247M318.25 0.333335V73.6667M318.25 0.333335H247M318.25 73.6667V147M318.25 73.6667H247M318.25 147V220.333M318.25 147H247M318.25 220.333V293.667M318.25 220.333H247M318.25 293.667V367M318.25 293.667H247M318.25 367H247M247 -73V0.333335M247 -73H175.75M247 0.333335V73.6667M247 0.333335H175.75M247 73.6667V147M247 73.6667H175.75M247 147V220.333M247 147H175.75M247 220.333V293.667M247 220.333H175.75M247 293.667V367M247 293.667H175.75M247 367H175.75M175.75 -73V0.333335M175.75 -73H104.5M175.75 0.333335V73.6667M175.75 0.333335H104.5M175.75 73.6667V147M175.75 73.6667H104.5M175.75 147V220.333M175.75 147H104.5M175.75 220.333V293.667M175.75 220.333H104.5M175.75 293.667V367M175.75 293.667H104.5M175.75 367H104.5M104.5 -73V0.333335M104.5 -73H33.25M104.5 0.333335V73.6667M104.5 0.333335H33.25M104.5 73.6667V147M104.5 73.6667H33.25M104.5 147V220.333M104.5 147H33.25M104.5 220.333V293.667M104.5 220.333H33.25M104.5 293.667V367M104.5 293.667H33.25M104.5 367H33.25M33.25 -73V0.333335M33.25 -73H-38V0.333335M33.25 0.333335V73.6667M33.25 0.333335H-38M33.25 73.6667V147M33.25 73.6667H-38M33.25 147V220.333M33.25 147H-38M33.25 220.333V293.667M33.25 220.333H-38M33.25 293.667V367M33.25 293.667H-38M33.25 367H-38V293.667M-38 0.333335V73.6667M-38 73.6667V147M-38 147V220.333M-38 220.333V293.667" stroke="url(#paint0_radial_412_15995)" stroke-opacity="0.5"/>
<defs>
<radialGradient id="paint0_radial_412_15995" cx="0" cy="0" r="1" gradientUnits="userSpaceOnUse" gradientTransform="translate(532 147) rotate(90) scale(220 570)">
<stop stop-color="#CFD1D3"/>
<stop offset="1" stop-color="#CFD1D3" stop-opacity="0"/>
</radialGradient>
</defs>
</svg>
