<svg width="425" height="678" viewBox="0 0 425 678" fill="none" xmlns="http://www.w3.org/2000/svg">
<rect width="425" height="658" rx="32" fill="black"/>
<path fill-rule="evenodd" clip-rule="evenodd" d="M2.17987 10.9202C0 15.1984 0 20.799 0 32V678L10.3188 678C10.3188 670.799 15.2826 664.961 21.4058 664.961C27.529 664.961 32.4928 670.799 32.4928 678H42.3479C42.3479 670.799 47.3117 664.961 53.4349 664.961C59.558 664.961 64.5218 670.799 64.5218 678H74.3768C74.3768 670.799 79.3406 664.961 85.4638 664.961C91.5869 664.961 96.5507 670.799 96.5507 678H106.406C106.406 670.799 111.37 664.961 117.493 664.961C123.616 664.961 128.58 670.799 128.58 678H138.435C138.435 670.799 143.399 664.961 149.522 664.961C155.645 664.961 160.609 670.799 160.609 678H170.464C170.464 670.799 175.428 664.961 181.551 664.961C187.674 664.961 192.638 670.799 192.638 678H202.493C202.493 670.799 207.456 664.961 213.58 664.961C219.703 664.961 224.667 670.799 224.667 678H234.522C234.522 670.799 239.486 664.961 245.609 664.961C251.732 664.961 256.696 670.799 256.696 678H266.551C266.551 670.799 271.515 664.961 277.638 664.961C283.761 664.961 288.725 670.799 288.725 678H298.58C298.58 670.799 303.544 664.961 309.667 664.961C315.79 664.961 320.754 670.799 320.754 678H330.609C330.609 670.799 335.572 664.961 341.696 664.961C347.819 664.961 352.783 670.799 352.783 678H362.638C362.638 670.799 367.602 664.961 373.725 664.961C379.848 664.961 384.812 670.799 384.812 678H394.667C394.667 670.799 399.63 664.961 405.754 664.961C411.877 664.961 416.841 670.799 416.841 678L425 678V32C425 20.799 425 15.1984 422.82 10.9202C420.903 7.15695 417.843 4.09734 414.08 2.17987C409.802 0 404.201 0 393 0H32C20.799 0 15.1984 0 10.9202 2.17987C7.15695 4.09734 4.09734 7.15695 2.17987 10.9202Z" fill="black"/>
</svg>
